# xmcd
#
# Track frame offsets:
#	150
#	45017
#	66860
#	93213
#	115915
#	147641
#	185071
#	200555
#	220814
#	247237
#	262162
#	285592
#	309316
#	320438
#
# Disc length: 4543 seconds
#
# Revision: 1
# Processed by: cddbd v1.5.2PL0 Copyright (c) Steve Scherf et al.
# Submitted via: audiograbber 1.83.01
#
DISCID=d811bd0e
DTITLE=Wolf Serno - Die Mission des Wanderchirurgen
DYEAR=2006
DGENRE=Hörbuch
TTITLE0=201
TTITLE1=202
TTITLE2=203
TTITLE3=204
TTITLE4=205
TTITLE5=206
TTITLE6=207
TTITLE7=208
TTITLE8=209
TTITLE9=210
TTITLE10=211
TTITLE11=212
TTITLE12=213
TTITLE13=214
EXTD=gelesen von Detlef Bierstedt
EXTT0=
EXTT1=
EXTT2=
EXTT3=
EXTT4=
EXTT5=
EXTT6=
EXTT7=
EXTT8=
EXTT9=
EXTT10=
EXTT11=
EXTT12=
EXTT13=
PLAYORDER=
